<?xml version="1.0" standalone="no"?><!DOCTYPE svg PUBLIC "-//W3C//DTD SVG 1.1//EN" "http://www.w3.org/Graphics/SVG/1.1/DTD/svg11.dtd"><svg t="1640242220232" class="icon" viewBox="0 0 1024 1024" version="1.1" xmlns="http://www.w3.org/2000/svg" p-id="2272" xmlns:xlink="http://www.w3.org/1999/xlink" width="640" height="640"><defs><style type="text/css"></style></defs><path d="M0 758.357333c0 82.368 229.226667 149.141333 512 149.141334s512-66.773333 512-149.141334c0-82.368-229.226667-149.141333-512-149.141333s-512 66.773333-512 149.12z" fill="#E6E6E6" p-id="2273"></path><path d="M674.496 374.357333v105.450667c0 7.68-6.229333 13.909333-13.909333 13.909333H363.136a13.909333 13.909333 0 0 1-13.909333-13.909333v-105.450667a13.909333 13.909333 0 0 0-13.930667-13.909333H127.168a13.909333 13.909333 0 0 0-13.909333 13.909333v447.445334c0 7.68 6.229333 13.909333 13.909333 13.909333h762.986667c7.68 0 13.909333-6.229333 13.909333-13.909333V374.357333a13.909333 13.909333 0 0 0-13.909333-13.909333H688.426667a13.909333 13.909333 0 0 0-13.930667 13.909333z" fill="#F2F2F2" p-id="2274"></path><path d="M890.154667 846.848H127.168a25.045333 25.045333 0 0 1-25.045333-25.045333V374.357333c0-13.845333 11.221333-25.045333 25.045333-25.045333h208.128c13.845333 0 25.045333 11.2 25.045333 25.045333v105.450667c0 1.536 1.258667 2.773333 2.773334 2.773333h297.472a2.496 2.496 0 0 0 2.773333-2.773333v-105.450667c0-13.845333 11.221333-25.045333 25.066667-25.045333h201.728c13.824 0 25.045333 11.2 25.045333 25.045333v447.445334c0 13.824-11.221333 25.045333-25.045333 25.045333zM127.168 371.562667a2.496 2.496 0 0 0-2.773333 2.773333v447.466667c0 1.536 1.237333 2.773333 2.773333 2.773333h762.986667a3.050667 3.050667 0 0 0 2.773333-2.773333V374.357333a2.773333 2.773333 0 0 0-2.773333-2.773333H688.426667a2.773333 2.773333 0 0 0-2.773334 2.773333v105.450667c0 13.845333-11.221333 25.045333-25.066666 25.045333H363.136a25.045333 25.045333 0 0 1-25.045333-25.045333v-105.450667a2.496 2.496 0 0 0-2.773334-2.773333H127.146667z" fill="#B3B3B3" p-id="2275"></path><path d="M121.6 377.130667L104.618667 362.666667l207.872-247.104c4.864-5.546667 11.818667-8.746667 19.2-8.896l366.741333 1.664c7.594667 0.042667 14.762667 3.52 19.477333 9.472l194.773334 245.141333-17.237334 13.909333-194.773333-245.141333-368.704-2.773333L121.6 377.109333z" fill="#B3B3B3" p-id="2276"></path></svg>