<?xml version="1.0" encoding="UTF-8"?>
<svg width="371px" height="200px" viewBox="0 0 371 200" version="1.1" xmlns="http://www.w3.org/2000/svg" xmlns:xlink="http://www.w3.org/1999/xlink">
    <title>编组 4</title>
    <defs>
        <linearGradient x1="-47.0190124%" y1="-185.963888%" x2="68.8688465%" y2="100%" id="linearGradient-1">
            <stop stop-color="#D2D2D2" offset="0%"></stop>
            <stop stop-color="#D2D2D2" stop-opacity="0" offset="100%"></stop>
        </linearGradient>
        <linearGradient x1="118.999979%" y1="-110.864112%" x2="54.5018665%" y2="55.5871768%" id="linearGradient-2">
            <stop stop-color="#D2D2D2" offset="0%"></stop>
            <stop stop-color="#D2D2D2" stop-opacity="0" offset="100%"></stop>
        </linearGradient>
        <linearGradient x1="50%" y1="-221.156912%" x2="50%" y2="100%" id="linearGradient-3">
            <stop stop-color="#D2D2D2" offset="0%"></stop>
            <stop stop-color="#D2D2D2" stop-opacity="0" offset="100%"></stop>
        </linearGradient>
        <linearGradient x1="100.080959%" y1="-97.780461%" x2="38.826306%" y2="104.736078%" id="linearGradient-4">
            <stop stop-color="#D2D2D2" offset="0%"></stop>
            <stop stop-color="#D2D2D2" stop-opacity="0" offset="100%"></stop>
        </linearGradient>
        <linearGradient x1="50%" y1="-230.116303%" x2="50%" y2="100%" id="linearGradient-5">
            <stop stop-color="#D2D2D2" offset="0%"></stop>
            <stop stop-color="#D2D2D2" stop-opacity="0" offset="100%"></stop>
        </linearGradient>
        <linearGradient x1="50%" y1="-169.203289%" x2="50%" y2="100%" id="linearGradient-6">
            <stop stop-color="#D2D2D2" offset="0%"></stop>
            <stop stop-color="#D2D2D2" stop-opacity="0" offset="100%"></stop>
        </linearGradient>
        <linearGradient x1="94.0198096%" y1="56.553877%" x2="26.1827733%" y2="46.8352954%" id="linearGradient-7">
            <stop stop-color="#C5C5C5" offset="0%"></stop>
            <stop stop-color="#F6F6F6" offset="100%"></stop>
        </linearGradient>
        <linearGradient x1="3.70975156%" y1="13.4261896%" x2="170.734705%" y2="137.712351%" id="linearGradient-8">
            <stop stop-color="#FFFFFF" offset="0%"></stop>
            <stop stop-color="#C5C5C5" offset="78.76%"></stop>
        </linearGradient>
        <linearGradient x1="10.3343933%" y1="32.4991182%" x2="86.4230962%" y2="94.0338827%" id="linearGradient-9">
            <stop stop-color="#DFF6F4" offset="0%"></stop>
            <stop stop-color="#1BD1D2" offset="100%"></stop>
        </linearGradient>
    </defs>
    <g id="页面-1" stroke="none" stroke-width="1" fill="none" fill-rule="evenodd">
        <g id="空状态图标备份" transform="translate(-958.000000, -1441.000000)" fill-rule="nonzero">
            <g id="编组-4" transform="translate(958.000000, 1441.000000)">
                <g id="编组-2备份">
                    <path d="M73.2592593,159.554082 C65.345679,155.973835 56.7654321,146.368897 59.1975309,137.331859 C60.4139859,137.020515 61.693852,137.516587 62.382716,138.566427 C62.382716,138.566427 76.1111111,160.010872 72.2592593,140.282477 C70.4444444,131.010872 67.3209877,122.047909 67.0740741,112.467662 C66.6666667,95.0602545 82.6419753,90.233094 87.2345679,109.467662 C87.8395062,112.010872 90.1604938,132.689884 95.4444444,130.319514 C96.1250336,129.961557 96.6773282,129.400632 97.0246914,128.714576 C99.7037037,124.319514 100.506173,117.862724 105.419753,116.368897 C109.728395,115.010872 113.975309,118.751613 116.296296,122.61581 C121,130.467662 127.296296,149.98618 117.666667,156.603464 C108.037037,163.220748 83.7407407,164.270131 73.345679,159.640501 L73.2592593,159.554082 Z" id="路径" fill="url(#linearGradient-1)"></path>
                    <path d="M273.185185,180.430625 C269.703704,172.467662 269.790123,159.591119 277.691358,154.504699 C278.808047,155.104911 279.411159,156.355993 279.185185,157.603464 C279.185185,157.603464 274.975309,182.726921 285.358025,165.504699 C290.296296,157.393588 294,148.665193 300.17284,141.393588 C311.518519,128.134329 326.641975,135.331859 317.148148,152.677538 C315.91358,154.973835 303.740741,171.862724 309.246914,173.665193 C309.992355,173.848515 310.775891,173.801158 311.493827,173.52939 C316.432099,172.0726 321.37037,167.825687 326.037037,169.973835 C330.135802,171.862724 330.777778,177.467662 329.91358,181.899761 C328.135802,190.875069 319.421721,200.91212 307.841474,199.356564 C296.014314,197.751626 277.777778,190.924452 273.222222,180.517045 L273.185185,180.430625 Z" id="路径" fill="url(#linearGradient-2)"></path>
                    <path d="M370.518519,199.356551 C323.962963,167.418279 258.17284,147.504699 185.259259,147.504699 C112.345679,147.504699 46.5555556,167.418279 0,199.356551 L370.518519,199.356551 Z" id="路径" fill="url(#linearGradient-3)"></path>
                    <path d="M293.469136,103.060255 C290.518519,106.763958 288.62963,112.010872 290.395062,116.70223 C291.617284,119.936798 295.296296,119.961489 295.037037,124.455316 C294.783185,126.699169 294.014206,128.854 292.790123,130.751613 C290.704251,134.400024 288.14732,137.758071 285.185185,140.739267 C287.654305,142.665262 288.910389,145.760781 288.481481,148.862724 C287.997231,151.941616 286.539107,154.784309 284.320988,156.973835 C283.667879,157.772484 282.816415,158.385539 281.851852,158.751613 C280.917648,158.967389 279.94655,158.967389 279.012346,158.751613 C274.419062,157.972041 269.959209,156.546384 265.765432,154.517045 C263.148148,153.270131 260.481481,151.566427 259.592593,148.850378 C258.574074,145.733094 260.19348,144.742546 261.961179,143.765863 L262.41743,143.513691 C263.3302,143.004636 264.22575,142.451348 264.765432,141.566427 C266.061728,139.442971 266.098765,136.603464 266.555556,134.233094 C267.222222,130.739267 266.234568,124.368897 270.604938,122.998526 C272.296296,122.467662 274.135802,122.591119 275.82716,122.047909 C279.501372,120.878499 281.022443,117.422242 282.495104,113.927564 L282.762795,113.292245 C283.611763,111.282231 284.486968,109.304653 285.790123,107.78865 C287.641975,105.628156 292.234568,104.566427 293.469136,103.060255 Z M282.802469,123.78865 C282.802469,123.78865 269.506173,139.294822 269.938272,153.628156 L274.234568,153.628156 C274.234568,153.628156 275.790123,136.344205 282.802469,123.78865 Z" id="形状结合" fill="url(#linearGradient-4)"></path>
                    <path d="M104.135802,22.0108718 L104.135802,22.0108718 C104.204481,17.2252075 100.786222,13.0986863 96.0713857,12.2755097 C91.3565496,11.4523331 86.7422233,14.1764226 85.1851852,18.7022298 C82.2145965,18.6439999 79.4492011,20.2121758 77.9742152,22.7913626 C76.4992294,25.3705494 76.5499916,28.54923 78.1065814,31.0800038 C79.6631712,33.6107776 82.4772299,35.0898519 85.4444444,34.9367977 L103.333333,34.9367977 C106.729866,34.891492 109.517593,32.2362321 109.72807,28.8459242 C109.938548,25.4556163 107.50065,22.4759385 104.135802,22.0108718 L104.135802,22.0108718 Z" id="路径" fill="url(#linearGradient-5)"></path>
                    <path d="M178.074074,12.2084027 L178.074074,12.1466743 C178.066799,6.23154854 173.804253,1.17965438 167.974706,0.177082054 C162.14516,-0.825490268 156.439779,2.51210807 154.45679,8.08494589 C148.848713,8.17358419 144.374325,12.7916841 144.462963,18.3997607 C144.551601,24.0078373 149.169701,28.4822262 154.777778,28.3935879 L177,28.3935879 C181.281476,28.4012178 184.829217,25.075029 185.097306,20.8019475 C185.365395,16.528866 182.261202,12.7853409 178.012346,12.2577854 L178.074074,12.2084027 Z" id="路径" fill="url(#linearGradient-6)"></path>
                </g>
                <g id="icon局部-04" transform="translate(116.000000, 60.000000)">
                    <g id="编组">
                        <g>
                            <path d="M119.458101,17.1140039 L0,17.1140039 L0,7.0469428 C0,3.1508594 3.1508594,0 7.0469428,0 L112.398084,0 C116.294167,0 119.445027,3.1508594 119.445027,7.0469428 L119.445027,17.1140039 L119.458101,17.1140039 Z" id="路径" fill="url(#linearGradient-7)"></path>
                            <path d="M107.809073,106.004846 L11.6490279,106.004846 C5.21656805,106.004846 0,100.788278 0,94.3427444 L0,17.1140039 L119.458101,17.1140039 L119.458101,94.3558185 C119.458101,100.788278 114.241533,106.004846 107.809073,106.004846 Z" id="路径" fill="url(#linearGradient-8)"></path>
                            <circle id="椭圆形" fill="#FFFFFF" cx="9.51794872" cy="9.13879966" r="2.01341223"></circle>
                            <circle id="椭圆形" fill="#FFFFFF" cx="16.5256692" cy="9.13879966" r="2.01341223"></circle>
                            <circle id="椭圆形" fill="#FFFFFF" cx="23.5333897" cy="9.13879966" r="2.01341223"></circle>
                        </g>
                        <path d="M47.9803749,68.3402801 L37.6500551,58.0088213 L48.0368247,47.6209064 C49.3210584,46.336531 49.3210584,44.2476569 48.0368247,42.9632815 C46.752591,41.6789062 44.6639471,41.6789062 43.3797133,42.9632815 L32.9929438,53.3511964 L22.6202867,42.9632815 C21.9993385,42.3422649 21.1667034,42.0035285 20.291731,42.0035285 C19.4167585,42.0035285 18.5841235,42.3422649 17.9631753,42.9632815 C16.6789416,44.2476569 16.6789416,46.336531 17.9631753,47.6209064 L28.3499449,57.9947072 L17.9631753,68.3826221 C16.693054,69.6669975 16.693054,71.7417576 17.9631753,73.026133 C18.5841235,73.6471496 19.4167585,74 20.291731,74 C20.291731,74 20.291731,74 20.291731,74 C21.1667034,74 21.9993385,73.6612636 22.6202867,73.026133 L32.9929438,62.6523321 L43.3656009,73.026133 C44.5651599,74.0564561 46.3715546,74.0564561 47.6134509,72.9837909 C49.0105843,71.7982137 49.1658214,69.7234535 47.9803749,68.3402801 Z" id="路径" fill="#FFFFFF"></path>
                        <g transform="translate(60.140885, 38.977177)" id="路径">
                            <g fill="#D0D0D0">
                                <path d="M41.7848408,0.0490278952 L49.4854889,0.0490278952 C50.5706396,0.0490278952 51.4466047,0.924992956 51.4466047,2.0101437 L51.4466047,2.0101437 C51.4466047,3.09529445 50.5706396,3.97125951 49.4854889,3.97125951 L41.7848408,3.97125951 C40.6996901,3.97125951 39.823725,3.09529445 39.823725,2.0101437 C39.823725,0.924992956 40.6996901,0.0490278952 41.7848408,0.0490278952 Z"></path>
                                <path d="M2.54945055,0.0490278952 L33.7181178,0.0490278952 C34.8032685,0.0490278952 35.6792336,0.924992956 35.6792336,2.0101437 C35.6792336,3.09529445 34.8032685,3.97125951 33.7181178,3.97125951 L2.54945055,3.97125951 C1.4642998,3.97125951 0.588334742,3.09529445 0.588334742,2.0101437 C0.588334742,0.924992956 1.4642998,0.0490278952 2.54945055,0.0490278952 Z"></path>
                            </g>
                            <g transform="translate(0.000000, 16.996337)" fill="#FFFFFF">
                                <path d="M22.6312764,0.20591716 L49.4854889,0.20591716 C50.5706396,0.20591716 51.4466047,1.08188222 51.4466047,2.16703297 L51.4466047,2.16703297 C51.4466047,3.25218371 50.5706396,4.12814877 49.4854889,4.12814877 L22.6312764,4.12814877 C21.5461257,4.12814877 20.6701606,3.25218371 20.6701606,2.16703297 C20.6701606,1.09495633 21.5461257,0.20591716 22.6312764,0.20591716 Z"></path>
                                <path d="M2.54945055,0.20591716 L14.760665,0.20591716 C15.8458157,0.20591716 16.7217808,1.08188222 16.7217808,2.16703297 C16.7217808,3.25218371 15.8458157,4.12814877 14.760665,4.12814877 L2.54945055,4.12814877 C1.4642998,4.12814877 0.588192363,3.25218371 0.588192363,2.16703297 C0.575260637,1.09495633 1.4642998,0.20591716 2.54945055,0.20591716 Z"></path>
                            </g>
                            <g transform="translate(0.000000, 34.237813)" fill="#FFFFFF">
                                <path d="M32.3976331,0.117666948 L44.2296985,0.117666948 C45.0010707,0.117666948 45.6417019,0.993632009 45.6417019,2.07878276 L45.6417019,2.07878276 C45.6417019,3.1639335 45.0141448,4.03989856 44.2296985,4.03989856 L32.3976331,4.03989856 C31.6262609,4.03989856 30.9856298,3.1639335 30.9856298,2.07878276 C30.9856298,0.993632009 31.6131868,0.117666948 32.3976331,0.117666948 Z"></path>
                                <path d="M2.54945055,0.117666948 L21.1669766,0.117666948 C22.2521274,0.117666948 23.1280924,0.993632009 23.1280924,2.07878276 C23.1280924,3.1639335 22.2521274,4.03989856 21.1669766,4.03989856 L2.54945055,4.03989856 C1.4642998,4.03989856 0.588192363,3.1639335 0.588192363,2.07878276 C0.575260637,0.993632009 1.4642998,0.117666948 2.54945055,0.117666948 Z"></path>
                            </g>
                        </g>
                    </g>
                    <g id="编组" transform="translate(79.915469, 43.144548)">
                        <path d="M68.4167935,54.2444632 C64.9521555,54.2444632 61.8928149,55.957171 60.0101437,58.5719921 L49.0148211,52.9109045 C49.9038602,50.989011 50.4398986,48.8710059 50.4398986,46.6222598 C50.4398986,44.0597351 49.746971,41.680248 48.6095238,39.575317 L55.0289096,36.9212736 C55.6041702,37.8887574 56.2970978,38.8039448 57.2122852,39.5622429 C61.5921105,43.2752888 68.1422372,42.7392505 71.8552832,38.3594252 C75.5683291,33.9795999 75.0322908,27.4294731 70.6524655,23.7164272 C66.2726402,20.0033812 59.7225134,20.5394196 56.0094675,24.9192449 C53.7607213,27.5602141 53.093942,30.9987039 53.8783883,34.1364892 L46.8837419,37.0258664 C44.4519583,34.1364892 40.9611722,32.2015216 36.9866441,31.7962243 L36.9866441,21.5984221 C42.0071006,20.8531981 45.8639617,16.5779656 45.8639617,11.3483235 C45.8639617,5.60879121 41.2095802,0.954409693 35.4700479,0.954409693 C29.7305156,0.954409693 25.0761341,5.60879121 25.0761341,11.3483235 C25.0761341,16.5648915 28.9460693,20.8531981 33.9534517,21.5984221 L33.9534517,31.7962243 C26.4096929,32.5675965 20.4871231,38.8693153 20.4871231,46.6222598 C20.4871231,50.3483798 21.8991265,53.721499 24.1478726,56.3363201 L19.6111581,58.6635108 C17.7284869,55.9440969 14.6037757,54.1660186 11.0606932,54.1660186 C5.32116089,54.1660186 0.666779374,58.8204001 0.666779374,64.5599324 C0.666779374,70.2994646 5.32116089,74.9538462 11.0606932,74.9538462 C16.8002254,74.9538462 21.4284587,70.2994646 21.4284587,64.5599324 C21.4284587,63.4486334 21.219273,62.402705 20.8924204,61.409073 L26.4489152,58.558918 C28.9591434,60.4546633 32.0577064,61.6182587 35.4308256,61.6182587 C40.3597633,61.6182587 44.7003663,59.1995492 47.4197802,55.5257256 L58.6112144,61.2783319 C58.2451395,62.3373345 57.9967315,63.4617075 57.9967315,64.6514511 C57.9967315,70.3909834 62.651113,75.0453649 68.3906453,75.0453649 C74.1301775,75.0453649 78.784559,70.3909834 78.784559,64.6514511 C78.784559,58.9119189 74.1563257,54.2444632 68.4167935,54.2444632 L68.4167935,54.2444632 Z" id="路径" fill="url(#linearGradient-9)"></path>
                        <path d="M24.8538743,49.0932657 C23.7687236,49.0932657 22.8927585,48.2173006 22.8927585,47.1321499 C22.8927585,40.1636517 28.5538462,34.5025641 35.5223443,34.5025641 C36.6074951,34.5025641 37.4834601,35.3785292 37.4834601,36.4636799 C37.4834601,37.5488307 36.6074951,38.4247957 35.5223443,38.4247957 C30.7241476,38.4247957 26.8149901,42.3339532 26.8149901,47.1321499 C26.8149901,48.2042265 25.9390251,49.0932657 24.8538743,49.0932657 Z" id="路径" fill="#FFFFFF"></path>
                    </g>
                </g>
            </g>
        </g>
    </g>
</svg>